<svg width="76" height="26" viewBox="0 0 76 26" fill="none" xmlns="http://www.w3.org/2000/svg">
<path d="M3.71888 22.184C3.71888 22.184 3.63888 22.152 3.47888 22.088C3.31888 22.04 3.14288 21.992 2.95088 21.944C2.77488 21.896 2.63888 21.872 2.54288 21.872C2.28688 21.808 2.10288 21.664 1.99088 21.44C1.87888 21.232 1.85488 21 1.91888 20.744C1.98288 20.68 2.03088 20.544 2.06288 20.336C2.09488 20.128 2.11088 19.96 2.11088 19.832C2.17488 19.704 2.21488 19.616 2.23088 19.568C2.24688 19.504 2.28688 19.344 2.35088 19.088C2.39888 18.816 2.47888 18.44 2.59088 17.96C2.71888 17.464 2.85488 16.936 2.99888 16.376C3.15888 15.816 3.31088 15.28 3.45488 14.768C3.59888 14.256 3.72688 13.824 3.83888 13.472C3.96688 13.12 4.05488 12.92 4.10288 12.872C4.10288 12.872 4.10288 12.848 4.10288 12.8C4.10288 12.736 4.10288 12.672 4.10288 12.608C4.10288 12.608 4.11088 12.536 4.12688 12.392C4.15888 12.232 4.23888 12.056 4.36688 11.864C4.43088 11.688 4.48688 11.496 4.53488 11.288C4.58288 11.08 4.60688 10.944 4.60688 10.88C4.67088 10.8 4.75888 10.608 4.87088 10.304C4.99888 9.984 5.11888 9.672 5.23088 9.368C5.32688 9.112 5.43088 8.84 5.54288 8.552C5.67088 8.264 5.77488 8.016 5.85488 7.808C5.95088 7.6 5.99888 7.496 5.99888 7.496C5.99888 7.432 5.99888 7.4 5.99888 7.4C5.99888 7.384 5.99888 7.376 5.99888 7.376C6.06288 7.312 6.21488 6.992 6.45488 6.416C6.71088 5.824 7.05488 5.064 7.48688 4.136C7.55088 4.008 7.64688 3.808 7.77488 3.536C7.90288 3.248 7.96688 3.072 7.96688 3.008C8.20688 2.768 8.43888 2.688 8.66288 2.768C8.90288 2.832 9.11088 2.968 9.28688 3.176C9.47888 3.384 9.61488 3.576 9.69488 3.752L9.93488 4.136L9.04688 5.864C8.79088 6.312 8.56688 6.72 8.37488 7.088C8.19888 7.456 8.11088 7.672 8.11088 7.736C8.11088 7.736 8.07088 7.832 7.99088 8.024C7.92688 8.216 7.84688 8.464 7.75088 8.768C7.65488 9.056 7.55888 9.344 7.46288 9.632C7.28688 10.128 7.11888 10.544 6.95888 10.88C6.79888 11.2 6.71888 11.392 6.71888 11.456C6.71888 11.424 6.87888 11.4 7.19888 11.384C7.53488 11.368 7.95088 11.36 8.44688 11.36C8.94288 11.36 9.44688 11.36 9.95888 11.36C10.4869 11.344 10.9589 11.336 11.3749 11.336C11.7909 11.32 12.0789 11.296 12.2389 11.264L13.4869 11.144L14.1589 9.008C14.2869 8.56 14.4549 8.016 14.6629 7.376C14.8709 6.736 15.0549 6.192 15.2149 5.744C15.4709 5.008 15.7429 4.496 16.0309 4.208C16.3189 3.904 16.5589 3.752 16.7509 3.752C16.7989 3.752 16.8869 3.8 17.0149 3.896C17.1589 3.976 17.3029 4.072 17.4469 4.184C17.5909 4.296 17.6789 4.4 17.7109 4.496C17.9029 4.672 17.9909 4.872 17.9749 5.096C17.9749 5.32 17.8469 5.616 17.5909 5.984C17.3349 6.416 17.1189 6.888 16.9429 7.4C16.7829 7.896 16.6389 8.304 16.5109 8.624C16.5109 8.816 16.4869 8.976 16.4389 9.104C16.3909 9.216 16.3349 9.304 16.2709 9.368C16.2389 9.4 16.1749 9.52 16.0789 9.728C15.9829 9.936 15.8949 10.144 15.8149 10.352C15.7349 10.56 15.6949 10.688 15.6949 10.736C15.6949 10.848 15.6709 10.984 15.6229 11.144C15.5749 11.304 15.5189 11.416 15.4549 11.48C15.4229 11.576 15.3509 11.816 15.2389 12.2C15.1269 12.584 14.9989 13.04 14.8549 13.568C14.7109 14.08 14.5589 14.584 14.3989 15.08C14.2389 15.56 14.0949 15.96 13.9669 16.28C13.9669 16.392 13.9269 16.536 13.8469 16.712C13.7669 16.872 13.7269 17.016 13.7269 17.144C13.6629 17.336 13.5829 17.576 13.4869 17.864C13.3909 18.152 13.3429 18.336 13.3429 18.416C13.2629 18.784 13.1749 19.208 13.0789 19.688C12.9989 20.168 12.9269 20.592 12.8629 20.96C12.8149 21.328 12.7909 21.536 12.7909 21.584C12.3749 21.632 12.0629 21.576 11.8549 21.416C11.6469 21.256 11.4549 21.144 11.2789 21.08C10.9749 20.904 10.7909 20.68 10.7269 20.408C10.6789 20.152 10.7429 19.84 10.9189 19.472C10.9989 19.344 11.0949 19.032 11.2069 18.536C11.3349 18.024 11.4629 17.52 11.5909 17.024C11.6869 16.784 11.7909 16.48 11.9029 16.112C12.0149 15.744 12.1189 15.384 12.2149 15.032C12.3269 14.664 12.4229 14.352 12.5029 14.096C12.5829 13.84 12.6389 13.696 12.6709 13.664C12.6709 13.6 12.6709 13.544 12.6709 13.496C12.6709 13.448 12.6709 13.424 12.6709 13.424C12.6389 13.392 12.4789 13.368 12.1909 13.352C11.9029 13.32 11.5349 13.312 11.0869 13.328C10.6549 13.328 10.1829 13.344 9.67088 13.376C9.15888 13.392 8.67088 13.432 8.20688 13.496C8.03088 13.496 7.77488 13.496 7.43888 13.496C7.11888 13.496 6.89488 13.496 6.76688 13.496C6.59088 13.496 6.43888 13.496 6.31088 13.496C6.19888 13.496 6.14288 13.496 6.14288 13.496C6.11088 13.544 6.04688 13.704 5.95088 13.976C5.87088 14.248 5.76688 14.576 5.63888 14.96C5.52688 15.344 5.40688 15.736 5.27888 16.136C5.16688 16.536 5.06288 16.904 4.96688 17.24C4.88688 17.56 4.83088 17.792 4.79888 17.936C4.73488 18.224 4.64688 18.584 4.53488 19.016C4.43888 19.448 4.32688 19.888 4.19888 20.336C4.08688 20.8 3.98288 21.2 3.88688 21.536C3.80688 21.872 3.75088 22.088 3.71888 22.184ZM16.1265 24.992C15.5505 25.104 14.9985 25.12 14.4705 25.04C13.9425 24.976 13.5025 24.84 13.1505 24.632C12.7825 24.424 12.5585 24.192 12.4785 23.936C12.3825 23.568 12.4305 23.296 12.6225 23.12C12.8145 22.944 13.0465 22.84 13.3185 22.808C13.5745 22.776 13.7425 22.808 13.8225 22.904C13.9505 22.984 14.1505 23.104 14.4225 23.264C14.7105 23.424 15.0625 23.464 15.4785 23.384C15.8465 23.304 16.1745 23.128 16.4625 22.856C16.7505 22.584 17.0065 22.296 17.2305 21.992C17.3585 21.8 17.5745 21.456 17.8785 20.96C18.1825 20.464 18.4945 19.92 18.8145 19.328C19.1505 18.72 19.4305 18.16 19.6545 17.648C19.7025 17.52 19.7585 17.368 19.8225 17.192C19.8865 17.016 19.9665 16.872 20.0625 16.76C20.1585 16.568 20.2385 16.392 20.3025 16.232C20.3825 16.056 20.4305 15.936 20.4465 15.872C20.4625 15.792 20.5345 15.632 20.6625 15.392C20.7905 15.152 20.9105 14.912 21.0225 14.672C21.1025 14.432 21.2225 14.08 21.3825 13.616C21.5425 13.152 21.7025 12.776 21.8625 12.488C22.0545 12.12 22.2065 11.824 22.3185 11.6C22.4465 11.36 22.5825 11.216 22.7265 11.168C22.8705 11.056 23.0065 11 23.1345 11C23.2625 11 23.4145 11.048 23.5905 11.144C23.7825 11.336 23.9345 11.528 24.0465 11.72C24.1745 11.896 24.2225 12.12 24.1905 12.392C24.1745 12.648 24.0465 13 23.8065 13.448C23.6785 13.832 23.5345 14.184 23.3745 14.504C23.2305 14.808 23.1185 15.008 23.0385 15.104C22.9585 15.296 22.8625 15.512 22.7505 15.752C22.6545 15.976 22.5665 16.184 22.4865 16.376C22.1985 17.016 21.9505 17.536 21.7425 17.936C21.5345 18.336 21.3505 18.704 21.1905 19.04C21.0305 19.376 20.8625 19.768 20.6865 20.216C20.3185 20.808 19.9585 21.368 19.6065 21.896C19.2705 22.44 18.9105 22.944 18.5265 23.408C18.3665 23.552 18.1345 23.736 17.8305 23.96C17.5425 24.2 17.2385 24.416 16.9185 24.608C16.6145 24.816 16.3505 24.944 16.1265 24.992ZM19.1265 19.568C18.8865 19.536 18.6225 19.376 18.3345 19.088C18.0625 18.8 17.8305 18.496 17.6385 18.176C17.4625 17.856 17.3905 17.632 17.4225 17.504C17.4225 17.424 17.4225 17.36 17.4225 17.312C17.4225 17.264 17.4225 17.24 17.4225 17.24C17.3265 17.24 17.2465 17.104 17.1825 16.832C17.1345 16.544 17.0945 16.184 17.0625 15.752C17.0465 15.32 17.0385 14.872 17.0385 14.408C17.0545 13.944 17.0785 13.52 17.1105 13.136C17.1745 12.864 17.2065 12.568 17.2065 12.248C17.2065 11.912 17.2145 11.648 17.2305 11.456C17.2145 11.2 17.2625 10.992 17.3745 10.832C17.5025 10.672 17.5985 10.568 17.6625 10.52C18.2545 10.264 18.6865 10.4 18.9585 10.928C19.2305 11.456 19.3265 12.296 19.2465 13.448C19.2145 14.088 19.1985 14.704 19.1985 15.296C19.1985 15.872 19.2545 16.368 19.3665 16.784C19.4785 17.2 19.6705 17.496 19.9425 17.672C20.0545 17.736 20.0945 17.872 20.0625 18.08C20.0305 18.288 19.9585 18.512 19.8465 18.752C19.7345 18.976 19.6065 19.176 19.4625 19.352C19.3345 19.512 19.2225 19.584 19.1265 19.568ZM26.2742 19.832C26.0662 19.832 25.8982 19.792 25.7702 19.712C25.6582 19.632 25.5142 19.52 25.3382 19.376C25.0342 19.056 24.7862 18.712 24.5942 18.344C24.4182 17.976 24.3542 17.656 24.4022 17.384C24.4502 17.256 24.4662 17.136 24.4502 17.024C24.4502 16.896 24.4502 16.832 24.4502 16.832C24.3702 16.752 24.3462 16.704 24.3782 16.688C24.4102 16.656 24.4422 16.608 24.4742 16.544C24.5702 16.544 24.6022 16.456 24.5702 16.28C24.5382 16.152 24.5862 15.88 24.7142 15.464C24.8582 15.032 25.0502 14.624 25.2902 14.24C25.3862 14.08 25.5302 13.872 25.7222 13.616C25.9142 13.344 26.1222 13.08 26.3462 12.824C26.5862 12.552 26.8022 12.336 26.9942 12.176C27.3942 11.84 27.7622 11.568 28.0982 11.36C28.4502 11.152 28.8022 11.008 29.1542 10.928C29.5062 10.848 29.8662 10.808 30.2342 10.808C30.6182 10.808 30.9302 10.936 31.1702 11.192C31.5382 11.352 31.7942 11.568 31.9382 11.84C32.0982 12.112 32.2022 12.464 32.2502 12.896C32.2982 13.376 32.2502 13.968 32.1062 14.672C31.9622 15.36 31.5702 16.16 30.9302 17.072C30.5302 17.648 30.1382 18.096 29.7542 18.416C29.3702 18.736 28.9462 19.032 28.4822 19.304C28.1462 19.528 27.7862 19.664 27.4022 19.712C27.0182 19.76 26.6422 19.8 26.2742 19.832ZM28.7222 16.904C29.0742 16.6 29.3222 16.264 29.4662 15.896C29.6262 15.528 29.7942 15.096 29.9702 14.6C30.0342 14.504 30.0742 14.344 30.0902 14.12C30.1222 13.896 30.1302 13.68 30.1142 13.472C30.0982 13.248 30.0422 13.12 29.9462 13.088C29.8022 12.976 29.6582 12.952 29.5142 13.016C29.3702 13.064 29.1862 13.168 28.9622 13.328C28.4822 13.728 28.0342 14.192 27.6182 14.72C27.2182 15.232 26.9382 15.864 26.7782 16.616C26.7302 17.016 26.7702 17.32 26.8982 17.528C27.0422 17.72 27.2662 17.776 27.5702 17.696C27.8902 17.6 28.2742 17.336 28.7222 16.904ZM40.9935 19.904C40.7535 19.904 40.5215 19.832 40.2975 19.688C40.0735 19.528 39.8895 19.312 39.7455 19.04C39.6015 18.752 39.5295 18.416 39.5295 18.032C39.5295 17.792 39.5695 17.456 39.6495 17.024C39.7455 16.576 39.8815 16.016 40.0575 15.344C40.0895 15.12 40.1135 14.976 40.1295 14.912C40.1615 14.848 40.1775 14.784 40.1775 14.72C40.1775 14.688 40.1695 14.664 40.1535 14.648C40.1535 14.616 40.1375 14.6 40.1055 14.6C39.9775 14.6 39.8015 14.688 39.5775 14.864C39.3695 15.024 39.1295 15.216 38.8575 15.44C38.8095 15.472 38.7535 15.512 38.6895 15.56C38.6415 15.608 38.5855 15.656 38.5215 15.704C38.4735 15.752 38.4175 15.8 38.3535 15.848C38.1935 15.944 37.9455 16.128 37.6095 16.4C37.2895 16.672 36.9535 16.96 36.6015 17.264C36.2655 17.568 35.9695 17.824 35.7135 18.032C35.5855 18.128 35.4735 18.208 35.3775 18.272C35.2975 18.336 35.2415 18.368 35.2095 18.368C35.1775 18.368 35.0495 18.328 34.8255 18.248C34.6175 18.152 34.4095 18.024 34.2015 17.864C34.0095 17.688 33.9135 17.488 33.9135 17.264C33.9135 17.12 33.9695 16.832 34.0815 16.4C34.2095 15.968 34.3855 15.456 34.6095 14.864C34.8335 14.272 35.0895 13.672 35.3775 13.064C35.4415 12.92 35.4895 12.728 35.5215 12.488C35.5535 12.248 35.5855 12.016 35.6175 11.792C35.6655 11.552 35.7455 11.376 35.8575 11.264C35.9055 11.184 35.9615 11.128 36.0255 11.096C36.1055 11.048 36.1855 11.024 36.2655 11.024C36.4255 11.024 36.5775 11.064 36.7215 11.144C36.8655 11.208 37.0015 11.32 37.1295 11.48C37.3695 11.736 37.4975 12.04 37.5135 12.392C37.5455 12.728 37.5215 13.056 37.4415 13.376C37.3615 13.696 37.2735 13.96 37.1775 14.168C37.0815 14.36 37.0335 14.44 37.0335 14.408C37.0975 14.376 37.1855 14.296 37.2975 14.168C37.4255 14.04 37.6415 13.888 37.9455 13.712C38.3615 13.392 38.6815 13.168 38.9055 13.04C39.1295 12.896 39.2975 12.792 39.4095 12.728C39.5375 12.664 39.6495 12.592 39.7455 12.512C39.8255 12.448 39.8815 12.408 39.9135 12.392C39.9615 12.376 39.9855 12.368 39.9855 12.368C40.0335 12.368 40.1135 12.336 40.2255 12.272C40.3535 12.208 40.4735 12.176 40.5855 12.176C40.7455 12.176 40.9135 12.216 41.0895 12.296C41.2655 12.36 41.4175 12.456 41.5455 12.584C41.6735 12.696 41.7375 12.816 41.7375 12.944C41.7375 12.992 41.7535 13.032 41.7855 13.064C41.8175 13.096 41.8495 13.136 41.8815 13.184C41.9615 13.28 42.0495 13.416 42.1455 13.592C42.2575 13.752 42.3135 14.016 42.3135 14.384C42.3135 14.64 42.2575 15.016 42.1455 15.512C42.0335 16.008 41.9135 16.496 41.7855 16.976C41.6575 17.472 41.5935 17.872 41.5935 18.176C41.6095 18.464 41.6415 18.688 41.6895 18.848C41.7375 18.992 41.7615 19.112 41.7615 19.208C41.7615 19.336 41.6975 19.488 41.5695 19.664C41.4415 19.824 41.2495 19.904 40.9935 19.904Z" fill="#1100D7"/>
<path d="M59.125 9.70312V11.2969H49.1719V5.85938H51.1562V9.70312H59.125ZM60.5625 12.9062V14.5H57.5938V19.4375H55.5781V14.5H52.5938V19.4375H50.5938V14.5H47.5938V12.9062H60.5625ZM68.9062 7.09375C68.9062 9.17188 70.75 11.4062 73.9688 11.9531L73.0938 13.6094C70.6172 13.1172 68.7734 11.7266 67.8594 9.89062C66.9141 11.7109 65.0703 13.1094 62.6094 13.6094L61.75 11.9531C64.9062 11.3906 66.7656 9.15625 66.7812 7.09375V6.0625H68.9062V7.09375ZM74.4375 16.0469V17.6875H61.4219V16.0469H74.4375Z" fill="black"/>
</svg>
